<svg width="221" height="110" viewBox="0 0 221 110" fill="none" xmlns="http://www.w3.org/2000/svg">
<path d="M60.3203 92V80.625H63.5312C64.5208 80.625 65.3958 80.8438 66.1562 81.2812C66.9167 81.7188 67.5026 82.3411 67.9141 83.1484C68.3307 83.9557 68.5417 84.8828 68.5469 85.9297V86.6562C68.5469 87.7292 68.3385 88.6693 67.9219 89.4766C67.5104 90.2839 66.9193 90.9036 66.1484 91.3359C65.3828 91.7682 64.4896 91.9896 63.4688 92H60.3203ZM61.8203 81.8594V90.7734H63.3984C64.5547 90.7734 65.4531 90.4141 66.0938 89.6953C66.7396 88.9766 67.0625 87.9531 67.0625 86.625V85.9609C67.0625 84.6693 66.7578 83.6667 66.1484 82.9531C65.5443 82.2344 64.6849 81.8698 63.5703 81.8594H61.8203ZM72.1641 92H70.7188V83.5469H72.1641V92ZM70.6016 81.3047C70.6016 81.0703 70.6719 80.8724 70.8125 80.7109C70.9583 80.5495 71.1719 80.4688 71.4531 80.4688C71.7344 80.4688 71.9479 80.5495 72.0938 80.7109C72.2396 80.8724 72.3125 81.0703 72.3125 81.3047C72.3125 81.5391 72.2396 81.7344 72.0938 81.8906C71.9479 82.0469 71.7344 82.125 71.4531 82.125C71.1719 82.125 70.9583 82.0469 70.8125 81.8906C70.6719 81.7344 70.6016 81.5391 70.6016 81.3047ZM79.4062 89.7578C79.4062 89.3672 79.2578 89.0651 78.9609 88.8516C78.6693 88.6328 78.1562 88.4453 77.4219 88.2891C76.6927 88.1328 76.112 87.9453 75.6797 87.7266C75.2526 87.5078 74.9349 87.2474 74.7266 86.9453C74.5234 86.6432 74.4219 86.2839 74.4219 85.8672C74.4219 85.1745 74.7135 84.5885 75.2969 84.1094C75.8854 83.6302 76.6354 83.3906 77.5469 83.3906C78.5052 83.3906 79.2812 83.638 79.875 84.1328C80.474 84.6276 80.7734 85.2604 80.7734 86.0312H79.3203C79.3203 85.6354 79.151 85.2943 78.8125 85.0078C78.4792 84.7214 78.0573 84.5781 77.5469 84.5781C77.0208 84.5781 76.6094 84.6927 76.3125 84.9219C76.0156 85.151 75.8672 85.4505 75.8672 85.8203C75.8672 86.1693 76.0052 86.4323 76.2812 86.6094C76.5573 86.7865 77.0547 86.9557 77.7734 87.1172C78.4974 87.2786 79.0833 87.4714 79.5312 87.6953C79.9792 87.9193 80.3099 88.1901 80.5234 88.5078C80.7422 88.8203 80.8516 89.2031 80.8516 89.6562C80.8516 90.4115 80.5495 91.0182 79.9453 91.4766C79.3411 91.9297 78.5573 92.1562 77.5938 92.1562C76.9167 92.1562 76.3177 92.0365 75.7969 91.7969C75.276 91.5573 74.8672 91.224 74.5703 90.7969C74.2786 90.3646 74.1328 89.8984 74.1328 89.3984H75.5781C75.6042 89.8828 75.7969 90.2682 76.1562 90.5547C76.5208 90.8359 77 90.9766 77.5938 90.9766C78.1406 90.9766 78.5781 90.8672 78.9062 90.6484C79.2396 90.4245 79.4062 90.1276 79.4062 89.7578ZM86.125 90.9766C86.6406 90.9766 87.0911 90.8203 87.4766 90.5078C87.862 90.1953 88.0755 89.8047 88.1172 89.3359H89.4844C89.4583 89.8203 89.2917 90.2812 88.9844 90.7188C88.6771 91.1562 88.2656 91.5052 87.75 91.7656C87.2396 92.026 86.6979 92.1562 86.125 92.1562C84.974 92.1562 84.0573 91.7734 83.375 91.0078C82.6979 90.237 82.3594 89.1849 82.3594 87.8516V87.6094C82.3594 86.7865 82.5104 86.0547 82.8125 85.4141C83.1146 84.7734 83.5469 84.276 84.1094 83.9219C84.6771 83.5677 85.3464 83.3906 86.1172 83.3906C87.0651 83.3906 87.8516 83.6745 88.4766 84.2422C89.1068 84.8099 89.4427 85.5469 89.4844 86.4531H88.1172C88.0755 85.9062 87.8672 85.4583 87.4922 85.1094C87.1224 84.7552 86.6641 84.5781 86.1172 84.5781C85.3828 84.5781 84.8125 84.8438 84.4062 85.375C84.0052 85.901 83.8047 86.6641 83.8047 87.6641V87.9375C83.8047 88.9115 84.0052 89.6615 84.4062 90.1875C84.8073 90.7135 85.3802 90.9766 86.125 90.9766ZM90.7266 87.6953C90.7266 86.8672 90.888 86.1224 91.2109 85.4609C91.5391 84.7995 91.9922 84.2891 92.5703 83.9297C93.1536 83.5703 93.8177 83.3906 94.5625 83.3906C95.7135 83.3906 96.6432 83.7891 97.3516 84.5859C98.0651 85.3828 98.4219 86.4427 98.4219 87.7656V87.8672C98.4219 88.6901 98.263 89.4297 97.9453 90.0859C97.6328 90.737 97.1823 91.2448 96.5938 91.6094C96.0104 91.974 95.3385 92.1562 94.5781 92.1562C93.4323 92.1562 92.5026 91.7578 91.7891 90.9609C91.0807 90.1641 90.7266 89.1094 90.7266 87.7969V87.6953ZM92.1797 87.8672C92.1797 88.8047 92.3958 89.5573 92.8281 90.125C93.2656 90.6927 93.849 90.9766 94.5781 90.9766C95.3125 90.9766 95.8958 90.6901 96.3281 90.1172C96.7604 89.5391 96.9766 88.7318 96.9766 87.6953C96.9766 86.7682 96.7552 86.0182 96.3125 85.4453C95.875 84.8672 95.2917 84.5781 94.5625 84.5781C93.849 84.5781 93.2734 84.862 92.8359 85.4297C92.3984 85.9974 92.1797 86.8099 92.1797 87.8672ZM101.602 83.5469L101.648 84.6094C102.294 83.7969 103.138 83.3906 104.18 83.3906C105.966 83.3906 106.867 84.3984 106.883 86.4141V92H105.438V86.4062C105.432 85.7969 105.292 85.3464 105.016 85.0547C104.745 84.763 104.32 84.6172 103.742 84.6172C103.273 84.6172 102.862 84.7422 102.508 84.9922C102.154 85.2422 101.878 85.5703 101.68 85.9766V92H100.234V83.5469H101.602ZM110.43 83.5469L110.477 84.6094C111.122 83.7969 111.966 83.3906 113.008 83.3906C114.794 83.3906 115.695 84.3984 115.711 86.4141V92H114.266V86.4062C114.26 85.7969 114.12 85.3464 113.844 85.0547C113.573 84.763 113.148 84.6172 112.57 84.6172C112.102 84.6172 111.69 84.7422 111.336 84.9922C110.982 85.2422 110.706 85.5703 110.508 85.9766V92H109.062V83.5469H110.43ZM121.398 92.1562C120.253 92.1562 119.32 91.7812 118.602 91.0312C117.883 90.276 117.523 89.2682 117.523 88.0078V87.7422C117.523 86.9036 117.682 86.1562 118 85.5C118.323 84.8385 118.771 84.3229 119.344 83.9531C119.922 83.5781 120.547 83.3906 121.219 83.3906C122.318 83.3906 123.172 83.7526 123.781 84.4766C124.391 85.2005 124.695 86.237 124.695 87.5859V88.1875H118.969C118.99 89.0208 119.232 89.6953 119.695 90.2109C120.164 90.7214 120.758 90.9766 121.477 90.9766C121.987 90.9766 122.419 90.8724 122.773 90.6641C123.128 90.4557 123.438 90.1797 123.703 89.8359L124.586 90.5234C123.878 91.612 122.815 92.1562 121.398 92.1562ZM121.219 84.5781C120.635 84.5781 120.146 84.7917 119.75 85.2188C119.354 85.6406 119.109 86.2344 119.016 87H123.25V86.8906C123.208 86.1562 123.01 85.5885 122.656 85.1875C122.302 84.7812 121.823 84.5781 121.219 84.5781ZM129.766 90.9766C130.281 90.9766 130.732 90.8203 131.117 90.5078C131.503 90.1953 131.716 89.8047 131.758 89.3359H133.125C133.099 89.8203 132.932 90.2812 132.625 90.7188C132.318 91.1562 131.906 91.5052 131.391 91.7656C130.88 92.026 130.339 92.1562 129.766 92.1562C128.615 92.1562 127.698 91.7734 127.016 91.0078C126.339 90.237 126 89.1849 126 87.8516V87.6094C126 86.7865 126.151 86.0547 126.453 85.4141C126.755 84.7734 127.188 84.276 127.75 83.9219C128.318 83.5677 128.987 83.3906 129.758 83.3906C130.706 83.3906 131.492 83.6745 132.117 84.2422C132.747 84.8099 133.083 85.5469 133.125 86.4531H131.758C131.716 85.9062 131.508 85.4583 131.133 85.1094C130.763 84.7552 130.305 84.5781 129.758 84.5781C129.023 84.5781 128.453 84.8438 128.047 85.375C127.646 85.901 127.445 86.6641 127.445 87.6641V87.9375C127.445 88.9115 127.646 89.6615 128.047 90.1875C128.448 90.7135 129.021 90.9766 129.766 90.9766ZM136.711 81.5V83.5469H138.289V84.6641H136.711V89.9062C136.711 90.2448 136.781 90.5 136.922 90.6719C137.062 90.8385 137.302 90.9219 137.641 90.9219C137.807 90.9219 138.036 90.8906 138.328 90.8281V92C137.948 92.1042 137.578 92.1562 137.219 92.1562C136.573 92.1562 136.086 91.9609 135.758 91.5703C135.43 91.1797 135.266 90.625 135.266 89.9062V84.6641H133.727V83.5469H135.266V81.5H136.711ZM143.492 92.1562C142.346 92.1562 141.414 91.7812 140.695 91.0312C139.977 90.276 139.617 89.2682 139.617 88.0078V87.7422C139.617 86.9036 139.776 86.1562 140.094 85.5C140.417 84.8385 140.865 84.3229 141.438 83.9531C142.016 83.5781 142.641 83.3906 143.312 83.3906C144.411 83.3906 145.266 83.7526 145.875 84.4766C146.484 85.2005 146.789 86.237 146.789 87.5859V88.1875H141.062C141.083 89.0208 141.326 89.6953 141.789 90.2109C142.258 90.7214 142.852 90.9766 143.57 90.9766C144.081 90.9766 144.513 90.8724 144.867 90.6641C145.221 90.4557 145.531 90.1797 145.797 89.8359L146.68 90.5234C145.971 91.612 144.909 92.1562 143.492 92.1562ZM143.312 84.5781C142.729 84.5781 142.24 84.7917 141.844 85.2188C141.448 85.6406 141.203 86.2344 141.109 87H145.344V86.8906C145.302 86.1562 145.104 85.5885 144.75 85.1875C144.396 84.7812 143.917 84.5781 143.312 84.5781ZM148.117 87.7031C148.117 86.4062 148.424 85.3646 149.039 84.5781C149.654 83.7865 150.458 83.3906 151.453 83.3906C152.443 83.3906 153.227 83.7292 153.805 84.4062V80H155.25V92H153.922L153.852 91.0938C153.273 91.8021 152.469 92.1562 151.438 92.1562C150.458 92.1562 149.659 91.7552 149.039 90.9531C148.424 90.151 148.117 89.1042 148.117 87.8125V87.7031ZM149.562 87.8672C149.562 88.8255 149.76 89.5755 150.156 90.1172C150.552 90.6589 151.099 90.9297 151.797 90.9297C152.714 90.9297 153.383 90.5182 153.805 89.6953V85.8125C153.372 85.0156 152.708 84.6172 151.812 84.6172C151.104 84.6172 150.552 84.8906 150.156 85.4375C149.76 85.9844 149.562 86.7943 149.562 87.8672Z" fill="#DBE6E9"/>
<path d="M60 23H87V69H60C55.0294 69 51 64.9706 51 60V32C51 27.0294 55.0294 23 60 23Z" stroke="#C8D3D7" stroke-width="4"/>
<path d="M155 23H128V69H155C159.971 69 164 64.9706 164 60V32C164 27.0294 159.971 23 155 23Z" stroke="#DBE6E9" stroke-width="4"/>
<path d="M199 69.5C199 56.5213 184.225 46 166 46" stroke="#DBE6E9" stroke-width="4"/>
<path d="M60 23H87V69H60C55.0294 69 51 64.9706 51 60V32C51 27.0294 55.0294 23 60 23Z" stroke="#DBE6E9" stroke-width="4"/>
<path d="M16 69.5C16 56.5213 30.7746 46 49 46" stroke="#DBE6E9" stroke-width="4"/>
<line x1="89" y1="36" x2="108" y2="36" stroke="#DBE6E9" stroke-width="4"/>
<line x1="89" y1="56" x2="108" y2="56" stroke="#DBE6E9" stroke-width="4"/>
</svg>
