<svg width="251" height="149" viewBox="0 0 251 149" fill="none" xmlns="http://www.w3.org/2000/svg">
<g clip-path="url(#clip0)">
<path d="M93.5723 10.1154C86.112 10.9612 79.5191 16.8818 78.0227 24.0819L77.7408 25.3831L73.1431 30.0458C70.6274 32.6049 68.3503 35.0555 68.09 35.4676C66.7454 37.7664 66.637 40.6725 67.8081 43.1882C68.4587 44.5762 69.2394 45.4219 78.3263 54.5522L88.1722 64.4198L88.324 66.5668C88.5843 70.4922 89.9072 73.4416 92.5096 75.8489C94.8518 77.9959 98.1483 79.2754 101.401 79.2754H103.028L104.503 80.6634C112.006 87.7551 123.349 88.9695 132.327 83.6562C134.496 82.355 136.968 80.1212 143.301 73.7669L148.397 68.6488L154.795 75.0465C158.807 79.0369 161.366 81.4441 161.626 81.4441C161.887 81.4441 165.009 78.4947 170.019 73.4633C176.2 67.3042 178 65.374 178 64.962C178 64.2897 173.793 60.0607 172.361 59.3017C170.973 58.5643 167.937 58.5643 166.506 59.2583L165.53 59.7571L164.511 58.7378L163.47 57.7185L164.12 57.4366C164.489 57.3065 164.836 57.0462 164.879 56.8944C164.944 56.7426 165.66 51.7329 166.484 45.7689C167.547 37.9399 167.894 34.7953 167.742 34.4483C167.482 33.8844 167.395 33.8627 163.752 33.3856C160.303 32.9302 159.067 33.082 157.354 34.1881C156.335 34.8387 154.795 36.7471 154.795 37.3544C154.795 37.7014 155.315 37.7447 149.156 36.8989C146.228 36.4869 143.192 36.0965 142.39 36.0098L140.915 35.858V32.7784C140.915 28.3759 140.265 26.4024 138.118 24.2988C134.04 20.3083 127.513 20.8288 124.216 25.4482C122.785 27.4217 122.481 28.8097 122.481 33.2121V36.9857H120.139H117.818L115.563 34.7302L113.329 32.4748L113.589 30.5663C114.283 25.665 112.787 20.4385 109.577 16.5565C105.76 11.8938 99.6013 9.42144 93.5723 10.1154ZM99.6013 12.8263C101.488 13.3034 104.177 14.6697 105.739 15.9709C109.23 18.8553 111.421 23.5614 111.421 28.1374V29.7205L109.989 30.8699C107.213 33.0603 104.156 34.1664 100.751 34.1664C98.4953 34.1664 97.7579 33.9495 97.7579 33.2555C97.7579 32.4748 96.8037 30.6531 96.0013 29.894C94.9603 28.9181 93.5289 28.3109 92.1843 28.3109H91.0566L90.6012 26.8795C90.059 25.1229 90.0156 22.1301 90.5144 20.1999C91.0132 18.2264 92.3795 15.6023 93.8759 13.8022L95.1988 12.2191L96.7603 12.3492C97.6061 12.4359 98.8856 12.6528 99.6013 12.8263ZM91.1651 13.3902C90.2542 14.6914 89.018 17.0987 88.4975 18.6601C87.9771 20.1999 87.912 20.7204 87.912 23.4313C87.8903 25.9687 87.9771 26.6626 88.3457 27.6819L88.7795 28.9181L87.8252 29.8073C86.112 31.4338 85.483 33.7326 86.1337 36.0098C86.8276 38.3953 89.365 40.2387 91.8807 40.2387C93.7892 40.2387 95.7844 39.1327 96.8471 37.5062L97.5627 36.4652L100.642 36.4435C104.221 36.4218 105.348 36.1616 108.276 34.7085C109.339 34.1881 110.25 33.7977 110.293 33.8411C110.336 33.8844 110.033 34.5784 109.599 35.4025C107.517 39.3496 104.134 42.0821 99.7748 43.3183C97.6061 43.9255 94.0061 43.9689 91.9024 43.4267C86.1987 41.9086 81.6878 37.3761 80.3215 31.7591C79.8661 29.894 79.8661 26.2723 80.3215 24.4289C81.5577 19.4409 85.0493 15.4288 89.8855 13.4335C91.447 12.8046 91.5988 12.7829 91.1651 13.3902ZM134.626 24.6024C136.079 25.3397 137.879 27.2048 137.879 27.9856C137.879 28.0506 135.038 28.094 131.568 28.094H125.279L125.669 27.4217C126.298 26.3157 128.207 24.7325 129.334 24.3421C130.831 23.8216 133.325 23.9518 134.626 24.6024ZM77.589 29.6121C77.589 30.588 78.3046 33.4941 78.9336 34.9688C80.5167 38.8291 83.7264 42.3207 87.3048 44.1207L88.2156 44.5762V47.0268V49.4557L80.5167 41.7568C76.2877 37.5279 72.8178 33.9712 72.8178 33.8411C72.8178 33.6025 77.1769 29.1783 77.4155 29.1783C77.5239 29.1783 77.589 29.3735 77.589 29.6121ZM93.6807 31.0434C95.047 31.7374 95.8061 33.6025 95.3723 35.164C95.0904 36.1616 94.0928 37.2676 93.1386 37.6146C91.512 38.2218 89.5602 37.5279 88.7144 36.0098C86.9144 32.8218 90.3626 29.3735 93.6807 31.0434ZM138.53 33.3856V36.2917L137.727 36.5736C135.255 37.3544 132.848 39.046 131.351 41.0412C130.852 41.7351 130.332 42.3858 130.245 42.5159C130.137 42.6243 129.009 41.6701 127.469 40.1303L124.867 37.5279V34.0146V30.4796H131.698H138.53V33.3856ZM123.414 45.834L134.192 56.6125L132.349 58.4559L130.505 60.2993L120.204 49.9979C114.544 44.3376 109.903 39.6315 109.903 39.5448C109.903 39.458 110.293 38.7857 110.77 38.0483C111.247 37.311 111.789 36.3351 112.006 35.8796C112.201 35.4025 112.418 35.0338 112.483 35.0338C112.57 35.0338 117.471 39.8918 123.414 45.834ZM161.193 36.0531C161.127 36.4001 160.585 40.2604 160 44.6629C159.393 49.0654 158.872 52.7305 158.807 52.7739C158.764 52.8389 158.091 52.2967 157.311 51.5811C155.749 50.128 154.166 49.1304 152.453 48.5883C151.585 48.3063 151.347 48.1328 151.412 47.8509C151.477 47.6557 151.737 45.7689 151.997 43.6436L152.496 39.805L154.383 39.9351C156.248 40.0869 156.291 40.0652 156.486 39.5664C157.202 37.7664 157.506 37.1809 158.026 36.6821C158.829 35.923 159.783 35.4676 160.585 35.4676C161.236 35.4676 161.279 35.511 161.193 36.0531ZM74.7696 39.2628L78.348 42.8412L76.2877 44.9015L74.2275 46.9617L72.319 45.0533C70.0419 42.8195 69.5431 41.9303 69.3913 40.0002C69.3045 38.8508 69.3913 38.3737 69.7599 37.5279C70.2154 36.4869 70.8009 35.6845 71.0612 35.6845C71.1262 35.6845 72.7961 37.2893 74.7696 39.2628ZM165.378 36.0098C165.443 36.0531 163.123 53.3811 162.906 54.4221C162.776 54.9859 162.711 55.0293 162.017 54.9209C161.583 54.8341 161.193 54.7474 161.127 54.6823C161.041 54.5739 163.383 36.5736 163.578 35.9664C163.643 35.7929 163.947 35.7495 164.489 35.8363C164.944 35.9013 165.335 35.9881 165.378 36.0098ZM141.349 39.6532C141.349 43.0581 138.53 45.8774 135.168 45.8774C133.867 45.8774 132.631 45.6171 132.023 45.2268C131.134 44.6629 134.409 40.6942 136.751 39.5014C137.879 38.9375 139.918 38.3303 140.872 38.3086C141.327 38.2869 141.349 38.3737 141.349 39.6532ZM147.53 39.046C148.961 39.2411 150.132 39.4146 150.154 39.4363C150.176 39.458 149.937 41.3448 149.633 43.6436L149.069 47.7858L147.443 47.9376C146.532 48.0244 145.209 48.2846 144.494 48.5015C143.778 48.7184 143.171 48.9136 143.149 48.9136C143.127 48.9136 142.607 48.263 141.999 47.4822L140.85 46.0726L141.392 45.487C142.889 43.8605 143.734 41.7351 143.734 39.6532C143.734 38.4821 143.734 38.4604 144.342 38.5905C144.667 38.6556 146.098 38.8725 147.53 39.046ZM126.341 42.2556L129.204 45.1183L128.944 46.3762C128.792 47.0485 128.619 47.6123 128.554 47.6123C128.488 47.6123 126.58 45.7473 124.325 43.4918L120.204 39.3713H121.831H123.457L126.341 42.2556ZM118.556 51.6028L128.857 61.9041L127.296 63.5306C125.713 65.2222 125.474 65.7427 126.081 66.35C126.97 67.2391 127.252 67.0223 134.17 60.1041L140.785 53.4895L141.522 54.4438C142.498 55.7016 144.19 56.8077 145.86 57.3065L147.204 57.6968V62.121V66.5234L140.351 73.2898C136.578 76.9983 133.043 80.3598 132.479 80.7718C130.896 81.9429 127.317 83.5478 125.192 84.0683C122.72 84.6755 118.426 84.7406 116.04 84.1984C112.874 83.4827 109.751 82.008 107.539 80.1863L106.541 79.3839L110.879 79.2754C115.216 79.167 115.216 79.167 116.691 78.473C120.356 76.7381 122.525 73.0946 122.199 69.2343C121.874 65.3957 118.859 61.9475 115.086 61.08C114.565 60.9499 112.505 60.8414 110.51 60.8414H106.866V54.3787C106.866 47.3304 106.801 46.9184 105.717 46.7882C104.481 46.6364 104.481 46.5931 104.481 54.3136V61.3836L101.597 64.268L98.7121 67.1307L97.129 66.3283C95.5458 65.5258 95.4808 65.5042 93.0735 65.5042H90.6012V55.5498V45.5954L91.4253 45.7473C91.859 45.8123 93.0085 45.9858 93.941 46.1159C98.1483 46.6581 103.418 45.0966 106.866 42.299C107.517 41.7785 108.103 41.3448 108.168 41.3231C108.233 41.3231 112.917 45.9424 118.556 51.6028ZM80.9504 45.4436L81.7962 46.3111L79.7577 48.3714L77.7191 50.4317L76.7865 49.5208L75.854 48.6099L77.8492 46.5931C78.9552 45.487 79.9095 44.5762 79.9745 44.5762C80.0396 44.5762 80.495 44.9665 80.9504 45.4436ZM134.886 48.263C135.71 48.263 136.881 48.0895 137.64 47.8509L138.963 47.4388L139.852 48.5666C140.351 49.1738 140.785 49.781 140.85 49.9329C140.915 50.0847 140.59 50.5184 140.113 50.9088C139.657 51.2991 138.508 52.3618 137.554 53.2943L135.797 54.9643L133.281 52.4269C130.896 50.0196 130.766 49.8461 130.852 49.1304C131.091 47.3304 131.004 47.4172 132.284 47.8509C132.934 48.0678 134.062 48.2413 134.886 48.263ZM88.2156 56.8293V60.9499L83.8348 56.5691L79.4324 52.1666L81.4926 50.1064L83.5529 48.0461L85.8734 50.3666L88.2156 52.7088V56.8293ZM151.78 50.822C153.255 51.3425 153.927 51.7546 153.927 52.1232C153.927 52.6004 151.997 54.357 150.935 54.8341C149.482 55.4847 147.248 55.4631 145.751 54.7908C144.537 54.2486 142.52 52.3184 142.78 51.9281C142.975 51.6028 144.689 50.8437 146.012 50.4967C147.443 50.128 150.219 50.3015 151.78 50.822ZM156.096 63.3355L151.238 68.215L150.414 67.4126L149.59 66.6102V62.1427V57.6534L150.848 57.3065C152.409 56.8727 153.906 55.8968 155.077 54.5305L155.988 53.4678L158.482 55.9619L160.976 58.4559L156.096 63.3355ZM163.925 61.3836C164.619 62.0342 165.313 62.5764 165.487 62.5764C165.66 62.5764 166.029 62.4029 166.311 62.1644C167.482 61.2535 168.263 61.0149 169.65 61.1017C170.453 61.1451 171.234 61.3402 171.602 61.5788L172.21 61.9692L165.4 68.7789L158.59 75.5886L155.836 72.8344C154.296 71.3163 153.06 69.9717 153.06 69.8416C153.06 69.6464 162.385 60.1908 162.581 60.1908C162.624 60.1908 163.231 60.733 163.925 61.3836ZM113.373 70.0584V76.8899H107.213H101.054L101.38 75.8489C101.835 74.3525 101.64 71.9235 100.924 70.2753L100.339 68.9958L103.223 66.1114L106.107 63.227H109.729H113.373V70.0584ZM168.306 71.7283L161.54 78.4947L160.976 77.9742C160.672 77.6923 160.433 77.367 160.433 77.2369C160.433 77.1067 163.426 74.0055 167.091 70.3404L173.771 63.6608L174.422 64.3114L175.072 64.962L168.306 71.7283ZM116.582 64.1812C117.428 64.6367 118.664 66.003 119.25 67.1307C119.965 68.562 120.052 70.7958 119.467 72.3573C118.773 74.1573 116.799 76.2392 115.758 76.2392C115.606 76.2392 115.541 74.2224 115.541 70.0584C115.541 65.8945 115.606 63.8776 115.758 63.8776C115.888 63.8776 116.257 64.0078 116.582 64.1812ZM96.3483 68.5403C97.541 69.2343 98.517 70.4054 98.9507 71.6633C99.5579 73.4633 99.1893 76.2609 98.3435 76.4127C97.6278 76.5646 95.1772 75.1549 93.8759 73.8754C92.206 72.2705 90.4494 68.7138 91.0132 68.15C91.3169 67.8464 93.247 67.6512 94.353 67.8247C94.9386 67.9114 95.8278 68.2367 96.3483 68.5403Z" fill="black"/>
<path d="M95.3073 14.7998C94.7217 14.9516 94.4181 15.9059 94.7868 16.4697C95.047 16.8384 95.4808 16.9902 96.9989 17.1854C99.6013 17.5324 101.575 18.5083 103.548 20.3734C105.11 21.8481 105.695 22.065 106.303 21.4577C106.975 20.8071 106.715 20.1348 105.262 18.6818C103.071 16.5348 99.9483 15.1034 96.782 14.7998C96.1964 14.7348 95.5241 14.7348 95.3073 14.7998Z" fill="black"/>
<path d="M107.17 23.5397C106.52 23.8 106.368 24.3422 106.693 25.5349C107.018 26.8362 107.517 27.335 108.276 27.1398C109.165 26.9229 109.339 26.2072 108.883 24.8626C108.471 23.6265 107.973 23.2578 107.17 23.5397Z" fill="black"/>
<path d="M93.6808 55.7667C93.0952 56.1571 93.0518 56.9595 93.594 57.4366C93.9193 57.7402 94.5049 57.8053 97.0422 57.8053C99.7098 57.8053 100.122 57.7619 100.425 57.4149C100.903 56.8944 100.881 56.2221 100.404 55.7884C99.8399 55.2679 94.4181 55.2462 93.6808 55.7667Z" fill="black"/>
<path d="M34.8359 105.707L42.334 93.7188H47.1895L37.3066 109.23L47.4258 125H42.5273L34.8359 112.797L27.1016 125H22.2246L32.3652 109.23L22.4609 93.7188H27.2949L34.8359 105.707ZM56.2129 106.48H63.9902C67.2559 106.523 69.8053 107.361 71.6387 108.994C73.472 110.627 74.3887 112.847 74.3887 115.654C74.3887 118.476 73.4648 120.725 71.6172 122.4C69.7695 124.076 67.2487 124.943 64.0547 125H52.0879V93.7188H56.2129V106.48ZM56.2129 109.875V121.627H63.7539C65.8021 121.627 67.3919 121.083 68.5234 119.994C69.6693 118.906 70.2422 117.445 70.2422 115.611C70.2422 113.85 69.6908 112.46 68.5879 111.443C67.4993 110.426 65.9453 109.904 63.9258 109.875H56.2129ZM113.898 110.369C113.898 113.434 113.383 116.113 112.352 118.404C111.32 120.682 109.859 122.422 107.969 123.625C106.078 124.828 103.872 125.43 101.352 125.43C98.974 125.43 96.8398 124.857 94.9492 123.711C93.0729 122.565 91.5977 120.925 90.5234 118.791C89.4635 116.657 88.8763 114.165 88.7617 111.314H84.2715V125H80.1465V93.7188H84.2715V108.07H88.7402C88.7832 105.12 89.3203 102.535 90.3516 100.314C91.3828 98.0801 92.8509 96.3542 94.7559 95.1367C96.6608 93.9049 98.8451 93.2891 101.309 93.2891C103.815 93.2891 106.021 93.8978 107.926 95.1152C109.845 96.3184 111.32 98.0729 112.352 100.379C113.383 102.671 113.898 105.342 113.898 108.393V110.369ZM109.795 108.35C109.795 104.64 109.05 101.797 107.561 99.8203C106.071 97.8294 103.987 96.834 101.309 96.834C98.7018 96.834 96.6465 97.8294 95.1426 99.8203C93.653 101.797 92.8867 104.547 92.8438 108.07V110.369C92.8438 113.964 93.5957 116.793 95.0996 118.855C96.6178 120.904 98.7018 121.928 101.352 121.928C104.016 121.928 106.078 120.961 107.539 119.027C109 117.079 109.752 114.294 109.795 110.67V108.35ZM142.215 115.074C141.828 118.383 140.604 120.939 138.541 122.744C136.493 124.535 133.764 125.43 130.355 125.43C126.66 125.43 123.695 124.105 121.461 121.455C119.241 118.805 118.131 115.26 118.131 110.82V107.812C118.131 104.905 118.646 102.348 119.678 100.143C120.723 97.9368 122.199 96.2467 124.104 95.0723C126.008 93.8835 128.214 93.2891 130.721 93.2891C134.044 93.2891 136.708 94.2201 138.713 96.082C140.718 97.9297 141.885 100.493 142.215 103.773H138.068C137.71 101.281 136.93 99.4766 135.727 98.3594C134.538 97.2422 132.869 96.6836 130.721 96.6836C128.085 96.6836 126.016 97.6576 124.512 99.6055C123.022 101.553 122.277 104.325 122.277 107.92V110.949C122.277 114.344 122.986 117.044 124.404 119.049C125.822 121.054 127.806 122.057 130.355 122.057C132.647 122.057 134.402 121.541 135.619 120.51C136.851 119.464 137.667 117.652 138.068 115.074H142.215ZM168.834 97.1133H158.779V125H154.676V97.1133H144.643V93.7188H168.834V97.1133ZM196.936 110.369C196.936 113.434 196.42 116.113 195.389 118.404C194.357 120.682 192.896 122.422 191.006 123.625C189.115 124.828 186.91 125.43 184.389 125.43C181.925 125.43 179.741 124.828 177.836 123.625C175.931 122.408 174.449 120.682 173.389 118.447C172.343 116.199 171.806 113.599 171.777 110.648V108.393C171.777 105.385 172.3 102.728 173.346 100.422C174.391 98.1159 175.867 96.3542 177.771 95.1367C179.691 93.9049 181.882 93.2891 184.346 93.2891C186.852 93.2891 189.058 93.8978 190.963 95.1152C192.882 96.3184 194.357 98.0729 195.389 100.379C196.42 102.671 196.936 105.342 196.936 108.393V110.369ZM192.832 108.35C192.832 104.64 192.087 101.797 190.598 99.8203C189.108 97.8294 187.024 96.834 184.346 96.834C181.739 96.834 179.684 97.8294 178.18 99.8203C176.69 101.797 175.924 104.547 175.881 108.07V110.369C175.881 113.964 176.633 116.793 178.137 118.855C179.655 120.904 181.739 121.928 184.389 121.928C187.053 121.928 189.115 120.961 190.576 119.027C192.037 117.079 192.789 114.294 192.832 110.67V108.35ZM227.164 125H223.018V110.541H207.248V125H203.123V93.7188H207.248V107.168H223.018V93.7188H227.164V125Z" fill="black"/>
</g>
<defs>
<clipPath id="clip0">
<rect width="251" height="149" fill="white"/>
</clipPath>
</defs>
</svg>
