<svg width="120" height="118" viewBox="0 0 120 118" fill="none" xmlns="http://www.w3.org/2000/svg">
<path d="M32.5723 11.1154C25.112 11.9612 18.5191 17.8818 17.0227 25.0819L16.7408 26.3831L12.1431 31.0458C9.62741 33.6049 7.35027 36.0555 7.09003 36.4676C5.74543 38.7664 5.637 41.6725 6.8081 44.1882C7.45871 45.5762 8.23944 46.4219 17.3263 55.5522L27.1722 65.4198L27.324 67.5668C27.5843 71.4922 28.9072 74.4416 31.5096 76.8489C33.8518 78.9959 37.1483 80.2754 40.4013 80.2754H42.0279L43.5026 81.6634C51.0063 88.7551 62.3486 89.9695 71.3271 84.6562C73.4958 83.355 75.9681 81.1212 82.3007 74.7669L87.3972 69.6488L93.7949 76.0465C97.807 80.0369 100.366 82.4441 100.626 82.4441C100.887 82.4441 104.009 79.4947 109.019 74.4633C115.2 68.3042 117 66.374 117 65.962C117 65.2897 112.793 61.0607 111.361 60.3017C109.973 59.5643 106.937 59.5643 105.506 60.2583L104.53 60.7571L103.511 59.7378L102.47 58.7185L103.12 58.4366C103.489 58.3065 103.836 58.0462 103.879 57.8944C103.944 57.7426 104.66 52.7329 105.484 46.7689C106.547 38.9399 106.894 35.7953 106.742 35.4483C106.482 34.8844 106.395 34.8627 102.752 34.3856C99.3034 33.9302 98.0672 34.082 96.3539 35.1881C95.3346 35.8387 93.7949 37.7471 93.7949 38.3544C93.7949 38.7014 94.3153 38.7447 88.1562 37.8989C85.2285 37.4869 82.1923 37.0965 81.3899 37.0098L79.9151 36.858V33.7784C79.9151 29.3759 79.2645 27.4024 77.1175 25.2988C73.0404 21.3083 66.5125 21.8288 63.2161 26.4482C61.7848 28.4217 61.4812 29.8097 61.4812 34.2121V37.9857H59.139H56.8184L54.563 35.7302L52.3292 33.4748L52.5895 31.5663C53.2834 26.665 51.787 21.4385 48.5774 17.5565C44.7604 12.8938 38.6013 10.4214 32.5723 11.1154ZM38.6013 13.8263C40.4881 14.3034 43.1773 15.6697 44.7387 16.9709C48.2304 19.8553 50.4208 24.5614 50.4208 29.1374V30.7205L48.9894 31.8699C46.2135 34.0603 43.1556 35.1664 39.7507 35.1664C37.4953 35.1664 36.7579 34.9495 36.7579 34.2555C36.7579 33.4748 35.8037 31.6531 35.0013 30.894C33.9603 29.9181 32.5289 29.3109 31.1843 29.3109H30.0566L29.6012 27.8795C29.059 26.1229 29.0156 23.1301 29.5144 21.1999C30.0132 19.2264 31.3795 16.6023 32.8759 14.8022L34.1988 13.2191L35.7603 13.3492C36.6061 13.4359 37.8856 13.6528 38.6013 13.8263ZM30.1651 14.3902C29.2542 15.6914 28.018 18.0987 27.4975 19.6601C26.9771 21.1999 26.912 21.7204 26.912 24.4313C26.8903 26.9687 26.9771 27.6626 27.3457 28.6819L27.7795 29.9181L26.8252 30.8073C25.112 32.4338 24.483 34.7326 25.1337 37.0098C25.8276 39.3953 28.365 41.2387 30.8807 41.2387C32.7892 41.2387 34.7844 40.1327 35.8471 38.5062L36.5627 37.4652L39.6423 37.4435C43.2207 37.4218 44.3484 37.1616 47.2761 35.7085C48.3388 35.1881 49.2497 34.7977 49.293 34.8411C49.3364 34.8844 49.0328 35.5784 48.599 36.4025C46.5171 40.3496 43.1339 43.0821 38.7748 44.3183C36.6061 44.9255 33.0061 44.9689 30.9024 44.4267C25.1987 42.9086 20.6878 38.3761 19.3215 32.7591C18.8661 30.894 18.8661 27.2723 19.3215 25.4289C20.5577 20.4409 24.0493 16.4288 28.8855 14.4335C30.447 13.8046 30.5988 13.7829 30.1651 14.3902ZM73.6259 25.6024C75.0789 26.3397 76.879 28.2048 76.879 28.9856C76.879 29.0506 74.038 29.094 70.568 29.094H64.2788L64.6691 28.4217C65.2981 27.3157 67.2065 25.7325 68.3343 25.3421C69.8307 24.8216 72.3247 24.9518 73.6259 25.6024ZM16.589 30.6121C16.589 31.588 17.3046 34.4941 17.9336 35.9688C19.5167 39.8291 22.7264 43.3207 26.3048 45.1207L27.2156 45.5762V48.0268V50.4557L19.5167 42.7568C15.2877 38.5279 11.8178 34.9712 11.8178 34.8411C11.8178 34.6025 16.1769 30.1783 16.4155 30.1783C16.5239 30.1783 16.589 30.3735 16.589 30.6121ZM32.6807 32.0434C34.047 32.7374 34.8061 34.6025 34.3723 36.164C34.0904 37.1616 33.0928 38.2676 32.1386 38.6146C30.512 39.2218 28.5602 38.5279 27.7144 37.0098C25.9144 33.8218 29.3626 30.3735 32.6807 32.0434ZM77.5296 34.3856V37.2917L76.7272 37.5736C74.2548 38.3544 71.8476 40.046 70.3512 42.0412C69.8524 42.7351 69.3319 43.3858 69.2451 43.5159C69.1367 43.6243 68.009 42.6701 66.4692 41.1303L63.8667 38.5279V35.0146V31.4796H70.6981H77.5296V34.3856ZM62.4137 46.834L73.1922 57.6125L71.3488 59.4559L69.5054 61.2993L59.204 50.9979C53.5437 45.3376 48.9027 40.6315 48.9027 40.5448C48.9027 40.458 49.293 39.7857 49.7701 39.0483C50.2473 38.311 50.7894 37.3351 51.0063 36.8796C51.2015 36.4025 51.4184 36.0338 51.4834 36.0338C51.5702 36.0338 56.4714 40.8918 62.4137 46.834ZM100.193 37.0531C100.127 37.4001 99.5853 41.2604 98.9998 45.6629C98.3925 50.0654 97.872 53.7305 97.807 53.7739C97.7636 53.8389 97.0913 53.2967 96.3106 52.5811C94.7491 51.128 93.1659 50.1304 91.4527 49.5883C90.5852 49.3063 90.3466 49.1328 90.4117 48.8509C90.4767 48.6557 90.737 46.7689 90.9972 44.6436L91.496 40.805L93.3828 40.9351C95.2479 41.0869 95.2913 41.0652 95.4864 40.5664C96.2021 38.7664 96.5057 38.1809 97.0262 37.6821C97.8287 36.923 98.7829 36.4676 99.5853 36.4676C100.236 36.4676 100.279 36.511 100.193 37.0531ZM13.7696 40.2628L17.348 43.8412L15.2877 45.9015L13.2275 47.9617L11.319 46.0533C9.04186 43.8195 8.54306 42.9303 8.39125 41.0002C8.3045 39.8508 8.39125 39.3737 8.75993 38.5279C9.21536 37.4869 9.80091 36.6845 10.0612 36.6845C10.1262 36.6845 11.7961 38.2893 13.7696 40.2628ZM104.378 37.0098C104.443 37.0531 102.123 54.3811 101.906 55.4221C101.776 55.9859 101.711 56.0293 101.017 55.9209C100.583 55.8341 100.193 55.7474 100.127 55.6823C100.041 55.5739 102.383 37.5736 102.578 36.9664C102.643 36.7929 102.947 36.7495 103.489 36.8363C103.944 36.9013 104.335 36.9881 104.378 37.0098ZM80.3489 40.6532C80.3489 44.0581 77.5296 46.8774 74.1681 46.8774C72.8669 46.8774 71.6307 46.6171 71.0235 46.2268C70.1343 45.6629 73.409 41.6942 75.7512 40.5014C76.879 39.9375 78.9175 39.3303 79.8718 39.3086C80.3272 39.2869 80.3489 39.3737 80.3489 40.6532ZM86.5297 40.046C87.961 40.2411 89.1321 40.4146 89.1538 40.4363C89.1755 40.458 88.937 42.3448 88.6333 44.6436L88.0695 48.7858L86.4429 48.9376C85.5321 49.0244 84.2092 49.2846 83.4935 49.5015C82.7778 49.7184 82.1706 49.9136 82.1489 49.9136C82.1272 49.9136 81.6067 49.263 80.9995 48.4822L79.8501 47.0726L80.3923 46.487C81.8887 44.8605 82.7345 42.7351 82.7345 40.6532C82.7345 39.4821 82.7345 39.4604 83.3417 39.5905C83.667 39.6556 85.0984 39.8725 86.5297 40.046ZM65.3414 43.2556L68.2041 46.1183L67.9439 47.3762C67.7921 48.0485 67.6186 48.6123 67.5535 48.6123C67.4885 48.6123 65.58 46.7473 63.3246 44.4918L59.204 40.3713H60.8305H62.4571L65.3414 43.2556ZM57.5558 52.6028L67.8571 62.9041L66.2957 64.5306C64.7125 66.2222 64.474 66.7427 65.0812 67.35C65.9704 68.2391 66.2523 68.0223 73.1705 61.1041L79.785 54.4895L80.5224 55.4438C81.4983 56.7016 83.1899 57.8077 84.8598 58.3065L86.2044 58.6968V63.121V67.5234L79.3513 74.2898C75.5777 77.9983 72.0427 81.3598 71.4789 81.7718C69.8957 82.9429 66.3174 84.5478 64.192 85.0683C61.7197 85.6755 57.4257 85.7406 55.0401 85.1984C51.8738 84.4827 48.7509 83.008 46.5388 81.1863L45.5412 80.3839L49.8786 80.2754C54.216 80.167 54.216 80.167 55.6907 79.473C59.3558 77.7381 61.5245 74.0946 61.1992 70.2343C60.8739 66.3957 57.8594 62.9475 54.0859 62.08C53.5654 61.9499 51.5051 61.8414 49.5099 61.8414H45.8665V55.3787C45.8665 48.3304 45.8014 47.9184 44.7171 47.7882C43.4809 47.6364 43.4809 47.5931 43.4809 55.3136V62.3836L40.5965 65.268L37.7121 68.1307L36.129 67.3283C34.5458 66.5258 34.4808 66.5042 32.0735 66.5042H29.6012V56.5498V46.5954L30.4253 46.7473C30.859 46.8123 32.0085 46.9858 32.941 47.1159C37.1483 47.6581 42.4182 46.0966 45.8665 43.299C46.5171 42.7785 47.1026 42.3448 47.1677 42.3231C47.2328 42.3231 51.9172 46.9424 57.5558 52.6028ZM19.9504 46.4436L20.7962 47.3111L18.7577 49.3714L16.7191 51.4317L15.7865 50.5208L14.854 49.6099L16.8492 47.5931C17.9552 46.487 18.9095 45.5762 18.9745 45.5762C19.0396 45.5762 19.495 45.9665 19.9504 46.4436ZM73.8861 49.263C74.7103 49.263 75.8814 49.0895 76.6404 48.8509L77.9633 48.4388L78.8525 49.5666C79.3513 50.1738 79.785 50.781 79.8501 50.9329C79.9151 51.0847 79.5898 51.5184 79.1127 51.9088C78.6573 52.2991 77.5079 53.3618 76.5537 54.2943L74.797 55.9643L72.2813 53.4269C69.8957 51.0196 69.7656 50.8461 69.8524 50.1304C70.0909 48.3304 70.0042 48.4172 71.2837 48.8509C71.9343 49.0678 73.062 49.2413 73.8861 49.263ZM27.2156 57.8293V61.9499L22.8348 57.5691L18.4324 53.1666L20.4926 51.1064L22.5529 49.0461L24.8734 51.3666L27.2156 53.7088V57.8293ZM90.7804 51.822C92.2551 52.3425 92.9274 52.7546 92.9274 53.1232C92.9274 53.6004 90.9972 55.357 89.9346 55.8341C88.4815 56.4847 86.2478 56.4631 84.7514 55.7908C83.5369 55.2486 81.52 53.3184 81.7802 52.9281C81.9754 52.6028 83.6887 51.8437 85.0116 51.4967C86.4429 51.128 89.2189 51.3015 90.7804 51.822ZM95.0961 64.3355L90.2382 69.215L89.4141 68.4126L88.59 67.6102V63.1427V58.6534L89.8478 58.3065C91.4093 57.8727 92.9057 56.8968 94.0768 55.5305L94.9876 54.4678L97.4817 56.9619L99.9757 59.4559L95.0961 64.3355ZM102.925 62.3836C103.619 63.0342 104.313 63.5764 104.487 63.5764C104.66 63.5764 105.029 63.4029 105.311 63.1644C106.482 62.2535 107.263 62.0149 108.65 62.1017C109.453 62.1451 110.234 62.3402 110.602 62.5788L111.21 62.9692L104.4 69.7789L97.5901 76.5886L94.8358 73.8344C93.2961 72.3163 92.0599 70.9717 92.0599 70.8416C92.0599 70.6464 101.385 61.1908 101.581 61.1908C101.624 61.1908 102.231 61.733 102.925 62.3836ZM52.3726 71.0584V77.8899H46.2135H40.0543L40.3797 76.8489C40.8351 75.3525 40.6399 72.9235 39.9242 71.2753L39.3387 69.9958L42.2231 67.1114L45.1074 64.227H48.7292H52.3726V71.0584ZM107.306 72.7283L100.54 79.4947L99.9757 78.9742C99.6721 78.6923 99.4335 78.367 99.4335 78.2369C99.4335 78.1067 102.426 75.0055 106.091 71.3404L112.771 64.6608L113.422 65.3114L114.072 65.962L107.306 72.7283ZM55.5823 65.1812C56.4281 65.6367 57.6642 67.003 58.2498 68.1307C58.9655 69.562 59.0522 71.7958 58.4667 73.3573C57.7727 75.1573 55.7991 77.2392 54.7582 77.2392C54.6064 77.2392 54.5413 75.2224 54.5413 71.0584C54.5413 66.8945 54.6064 64.8776 54.7582 64.8776C54.8883 64.8776 55.257 65.0078 55.5823 65.1812ZM35.3483 69.5403C36.541 70.2343 37.517 71.4054 37.9507 72.6633C38.5579 74.4633 38.1893 77.2609 37.3435 77.4127C36.6278 77.5646 34.1772 76.1549 32.8759 74.8754C31.206 73.2705 29.4494 69.7138 30.0132 69.15C30.3169 68.8464 32.247 68.6512 33.353 68.8247C33.9386 68.9114 34.8278 69.2367 35.3483 69.5403Z" fill="black"/>
<path d="M34.3073 15.7998C33.7217 15.9516 33.4181 16.9059 33.7868 17.4697C34.047 17.8384 34.4808 17.9902 35.9989 18.1854C38.6013 18.5324 40.5748 19.5083 42.5483 21.3734C44.1098 22.8481 44.6954 23.065 45.3026 22.4577C45.9749 21.8071 45.7147 21.1348 44.2616 19.6818C42.0712 17.5348 38.9483 16.1034 35.782 15.7998C35.1964 15.7348 34.5241 15.7348 34.3073 15.7998Z" fill="black"/>
<path d="M46.1701 24.5397C45.5195 24.8 45.3677 25.3422 45.693 26.5349C46.0183 27.8362 46.5171 28.335 47.2762 28.1398C48.1653 27.9229 48.3388 27.2072 47.8834 25.8626C47.4713 24.6265 46.9725 24.2578 46.1701 24.5397Z" fill="black"/>
<path d="M32.6808 56.7667C32.0952 57.1571 32.0518 57.9595 32.594 58.4366C32.9193 58.7402 33.5049 58.8053 36.0422 58.8053C38.7098 58.8053 39.1218 58.7619 39.4254 58.4149C39.9025 57.8944 39.8809 57.2221 39.4037 56.7884C38.8399 56.2679 33.4181 56.2462 32.6808 56.7667Z" fill="black"/>
</svg>
