<svg width="124" height="79" viewBox="0 0 124 79" fill="none" xmlns="http://www.w3.org/2000/svg">
<path d="M49.3486 32.8813H60.2349V37H44.2217V12.1172H49.3486V32.8813Z" fill="#226725"/>
<path d="M68.6431 37H63.5161V12.1172H68.6431V37Z" fill="#226725"/>
<path d="M82.6055 30.8306L88.2451 12.1172H93.9531L85.2886 37H79.9395L71.3091 12.1172H77L82.6055 30.8306Z" fill="#226725"/>
<path d="M111.282 26.2163H101.438V32.8813H112.991V37H96.3115V12.1172H112.957V16.27H101.438V22.2002H111.282V26.2163Z" fill="#226725"/>
<path fill-rule="evenodd" clip-rule="evenodd" d="M117 4H38C36.3431 4 35 5.34315 35 7V41C35 42.6569 36.3431 44 38 44H117C118.657 44 120 42.6569 120 41V7C120 5.34314 118.657 4 117 4ZM38 0C34.134 0 31 3.13401 31 7V41C31 44.866 34.134 48 38 48H117C120.866 48 124 44.866 124 41V7C124 3.13401 120.866 0 117 0H38Z" fill="#226725"/>
<path fill-rule="evenodd" clip-rule="evenodd" d="M26 17.4011C11.2566 19.7918 0 32.5814 0 48C0 65.1208 13.8792 79 31 79C46.4186 79 59.2082 67.7434 61.5989 53H57.5379C55.1931 65.5228 44.2033 75 31 75C16.0883 75 4 62.9117 4 48C4 34.7967 13.4772 23.8069 26 21.4621V17.4011ZM26 26.5707C16.2586 28.8346 9 37.5696 9 48C9 60.1503 18.8497 70 31 70C41.4304 70 50.1654 62.7414 52.4293 53H48.2965C46.1298 60.5086 39.2062 66 31 66C21.0589 66 13 57.9411 13 48C13 39.7938 18.4914 32.8702 26 30.7035V26.5707ZM26 35.9963C21.3021 37.9554 18 42.5921 18 48C18 55.1797 23.8203 61 31 61C36.4079 61 41.0446 57.6979 43.0037 53H38.4845C36.8699 55.412 34.1204 57 31 57C26.0294 57 22 52.9706 22 48C22 44.8796 23.588 42.1301 26 40.5155V35.9963Z" fill="#226725"/>
</svg>
