<svg width="87" height="95" viewBox="0 0 87 95" fill="none" xmlns="http://www.w3.org/2000/svg">
<g clip-path="url(#clip0)">
<path d="M80.9514 93.0594L79.0764 85.5594C78.1868 81.921 75.4898 78.995 71.9358 77.8125L58.1857 73.2312C54.8325 71.8344 53.2983 66.4344 52.9669 64.3843C55.5219 62.2597 57.1659 59.2369 57.5607 55.9375C57.5043 55.3739 57.6373 54.8076 57.9387 54.328C58.4259 54.206 58.8248 53.8571 59.0106 53.3905C59.9103 51.212 60.475 48.9099 60.6856 46.5625C60.686 46.4349 60.6704 46.3079 60.6387 46.1844C60.4149 45.2722 59.8786 44.4673 59.1231 43.9093V35.6249C59.1231 30.5905 57.5856 28.525 55.9668 27.328C55.6577 24.9031 53.0608 20 43.4983 20C35.0144 20.3416 28.2148 27.1411 27.8732 35.625V43.9095C27.1177 44.4674 26.5814 45.2724 26.3576 46.1845C26.3259 46.308 26.3103 46.4352 26.3107 46.5626C26.521 48.9112 27.0857 51.2144 27.9857 53.3939C28.1211 53.8355 28.476 54.1752 28.9232 54.2908C29.0983 54.3783 29.4264 54.8315 29.4264 55.9377C29.8235 59.2465 31.477 62.2763 34.0452 64.4003C33.7171 66.4471 32.192 71.844 28.9328 73.2065L15.0608 77.8127C11.5096 78.995 8.8143 81.9181 7.92338 85.5534L6.04838 93.0534C5.83612 93.8898 6.34208 94.74 7.17851 94.9522C7.30346 94.984 7.43192 95.0001 7.56083 95.0003H79.4359C80.2988 95 80.9982 94.3002 80.998 93.4373C80.9979 93.3097 80.9822 93.1829 80.9514 93.0594Z" fill="#607D8B"/>
</g>
<defs>
<clipPath id="clip0">
<rect width="87" height="95" fill="white"/>
</clipPath>
</defs>
</svg>
